<?xml version="1.0" encoding="utf-8"?>
<!-- Generator: Adobe Illustrator 19.2.1, SVG Export Plug-In . SVG Version: 6.00 Build 0)  -->
<svg version="1.1" id="Ebene_1" xmlns="http://www.w3.org/2000/svg" xmlns:xlink="http://www.w3.org/1999/xlink" x="0px" y="0px"
	 width="564px" height="234.4px" viewBox="0 0 564 234.4" style="enable-background:new 0 0 564 234.4;" xml:space="preserve">
<style type="text/css">
	.st0{fill:#EFEFEF;}
	.st1{fill:#656565;}
	.st2{fill:#DF4054;}
	.st3{fill:#48434A;}
	.st4{fill:#544F5B;}
	.st5{fill:#C9C7C8;}
	.st6{fill:#F7F8F6;}
	.st7{fill:#E5E5E5;}
	.st8{fill:#A8A8A8;}
</style>
<path id="colony-planet" class="st0" d="M417.4,16.1c0,0,4.1-4.7,10.2-6c0,0,3.4-4.6,6.6-0.9c0,0,4.1-0.1,5,0.4s15.1,2.2,18.8,21.1
	c0,0,3.4,0.8,0,9.2c0,0-1,4.5-1.6,4.9c0,0,0.9,8.6-6.6,8.1c0,0-10.5,11.6-27.5,2.5c0,0-3,0.6-6-2.4c0,0-1.4-1.9-2.9-2.5
	c0,0-1.1-3.2-0.8-4c0,0-6.5-11.1-1.2-23.1C411.4,23.4,409.8,16.4,417.4,16.1z"/>
<ellipse id="planet-crater-1" class="st1" cx="434.4" cy="18.9" rx="4.8" ry="2.4"/>
<ellipse id="planet-crater-2" transform="matrix(0.6101 -0.7924 0.7924 0.6101 138.7918 361.3104)" class="st1" cx="436.5" cy="39.6" rx="5.2" ry="3.8"/>
<circle id="planet-crater-3" class="st1" cx="422.8" cy="37.7" r="2.9"/>
<polygon id="planet-flag-stange" class="st1" points="439.1,9.7 440.8,5.4 441.8,5.7 440.5,9.7 "/>
<path id="planet-flag-1" class="st2" d="M441.8,4.3l2.8,0.4c0,0,2-3.2,1.1-4.1l-3.9-0.3V4.3z"/>
<path id="planet-flag-2" class="st2" d="M446.3,3.2v3.8l3.9,0.6c0,0,1.1-3.4-0.5-4.3H446.3z"/>
<path id="tree-star-1" class="st3" d="M545.2,21.9c-0.7,4-1.3,4.6-5.4,5.4c4,0.7,4.6,1.3,5.4,5.4c0.7-4,1.3-4.6,5.4-5.4
	C546.5,26.5,545.9,25.9,545.2,21.9z"/>
<path id="tree-star-2" class="st3" d="M340.7,25.3c-0.4,2-0.7,2.3-2.7,2.7c2,0.4,2.3,0.7,2.7,2.7c0.4-2,0.7-2.3,2.7-2.7
	C341.4,27.6,341.1,27.3,340.7,25.3z"/>
<path id="tree-star-3" class="st4" d="M231.1,48.3c-0.6,3.1-1.1,3.6-4.3,4.1c3.2,0.6,3.7,1,4.3,4.1c0.6-3.1,1.1-3.6,4.3-4.1
	C232.2,51.9,231.7,51.4,231.1,48.3z"/>
<path id="tree-star-4" class="st4" d="M113.6,35.4c-0.7,3.9-1.4,4.5-5.4,5.3c4.1,0.7,4.7,1.3,5.4,5.3c0.7-3.9,1.4-4.5,5.4-5.3
	C114.9,40,114.3,39.4,113.6,35.4z"/>
<path id="tree-star-5" class="st4" d="M124.9,22c-0.4,2-0.7,2.3-2.7,2.6c2,0.4,2.3,0.7,2.7,2.6c0.4-2,0.7-2.3,2.7-2.6
	C125.5,24.2,125.2,24,124.9,22z"/>
<path id="tree-star-6" class="st4" d="M57.3,18.6c-0.5,2.5-0.9,2.9-3.4,3.3c2.6,0.5,3,0.8,3.4,3.3c0.5-2.5,0.9-2.9,3.4-3.3
	C58.2,21.5,57.8,21.1,57.3,18.6z"/>
<path id="tree-star-7" class="st3" d="M503.7,0c-0.4,2.4-0.8,2.7-3.2,3.2c2.4,0.4,2.7,0.8,3.2,3.2c0.4-2.4,0.8-2.7,3.2-3.2
	C504.5,2.7,504.1,2.4,503.7,0z"/>
<path id="tree-cloud-1" class="st5" d="M177.2,146.2H202c0,0,2.6-8.4-7.2-7.7c0,0-7.2-7.5-13,1.7
	C181.8,140.3,176.1,140.6,177.2,146.2z"/>
<path id="tree-cloud-2" class="st6" d="M153.2,142.4h32c0,0,3.4-10.9-9.2-9.9c0,0-9.2-9.6-16.8,2.2
	C159.2,134.8,151.9,135.2,153.2,142.4z"/>
<path id="tree-cloud-3" class="st6" d="M368.8,142.4h32c0,0,3.4-10.9-9.2-9.9c0,0-9.2-9.6-16.8,2.2
	C374.8,134.8,367.4,135.2,368.8,142.4z"/>
<path id="tree-cloud-4" class="st5" d="M328.4,147.3H347c0,0,2-6.3-5.4-5.8c0,0-5.4-5.6-9.8,1.3C331.9,142.8,327.6,143,328.4,147.3z
	"/>
<path id="tree-cloud-5" class="st2" d="M0,210.4c0,0,256.2-57.9,564,0v24H0V210.4z"/>
<polygon id="tree-1_1_" class="st2" points="124.5,184.2 127.6,185 123.1,177.7 124.8,174.8 117.6,166.3 110.3,174.8 112.1,177.7 
	107.6,185 110.7,184.2 107.8,190.2 115.1,190.2 115.1,195 117.6,195 120.1,195 120,190.2 127.4,190.2 "/>
<polygon id="tree-2" class="st2" points="138.2,185.3 140.1,185.9 137.3,179.4 138.4,176.7 133.8,169.1 129.3,176.7 130.4,179.4 
	127.6,185.9 129.5,185.3 127.7,190.7 132.3,190.7 132.3,195 133.8,195 135.4,195 135.4,190.7 140,190.7 "/>
<polygon id="tree-3" class="st2" points="151.4,185.9 152.8,186.3 150.8,182.5 151.6,181 148.5,176.7 145.4,181 146.2,182.5 
	144.2,186.3 145.6,185.9 144.3,188.9 147.5,188.9 147.4,191.4 148.5,191.4 149.6,191.4 149.5,188.9 152.7,188.9 "/>
<polygon id="tree-4" class="st2" points="245.3,180.4 247,180.8 244.6,177 245.5,175.5 241.6,171.2 237.7,175.5 238.7,177 
	236.2,180.8 237.9,180.4 236.3,183.4 240.3,183.4 240.3,185.9 241.6,185.9 243,185.9 242.9,183.4 246.9,183.4 "/>
<polygon id="tree-5" class="st2" points="332.3,177.3 334.7,178 331.2,171.2 332.6,168.5 326.9,160.6 321.2,168.5 322.5,171.2 
	319,178 321.5,177.3 319.1,182.9 324.9,182.9 324.9,187.4 326.9,187.4 328.8,187.4 328.8,182.9 334.6,182.9 "/>
<polygon id="tree-6" class="st2" points="389.4,177.8 392.5,178.5 388,171 389.7,168 382.4,159.3 375.2,168 376.9,171 372.4,178.5 
	375.5,177.8 372.6,183.9 380,183.9 379.9,188.9 382.4,188.9 385,188.9 384.9,183.9 392.3,183.9 "/>
<polygon id="tree-7" class="st2" points="417.6,186.3 419.2,186.7 416.9,183.1 417.8,181.7 414.2,177.6 410.7,181.7 411.6,183.1 
	409.3,186.7 410.9,186.3 409.4,189.2 413,189.2 413,191.6 414.2,191.6 415.5,191.6 415.5,189.2 419.1,189.2 "/>
<polygon id="tree-8" class="st2" points="474.9,187.2 478.2,188 473.4,180.3 475.3,177.2 467.6,168.3 459.9,177.2 461.7,180.3 
	456.9,188 460.3,187.2 457.1,193.5 465,193.5 464.9,198.5 467.6,198.5 470.2,198.5 470.2,193.5 478,193.5 "/>
<polygon id="tree-9" class="st2" points="455.3,188.7 456.9,189.1 454.6,184.6 455.5,182.8 451.7,177.6 447.9,182.8 448.8,184.6 
	446.5,189.1 448.1,188.7 446.6,192.3 450.4,192.3 450.4,195.3 451.7,195.3 453,195.3 453,192.3 456.9,192.3 "/>
<polygon id="tree-10" class="st2" points="488.8,193.8 490.2,194.1 488.2,190.9 488.9,189.6 485.7,185.8 482.5,189.6 483.2,190.9 
	481.2,194.1 482.6,193.8 481.3,196.4 484.6,196.4 484.6,198.5 485.7,198.5 486.8,198.5 486.8,196.4 490.1,196.4 "/>
<polygon id="tree-11" class="st2" points="320.2,181.1 321.5,181.5 319.7,177.3 320.4,175.6 317.4,170.6 314.4,175.6 315.2,177.3 
	313.3,181.5 314.6,181.1 313.4,184.6 316.4,184.6 316.4,187.4 317.4,187.4 318.4,187.4 318.4,184.6 321.4,184.6 "/>
<polygon id="tree-12" class="st2" points="312.3,181.9 313.3,182.2 311.9,179 312.4,177.8 310.1,174.1 307.8,177.8 308.3,179 
	306.9,182.2 307.9,181.9 306.9,184.5 309.3,184.5 309.3,186.6 310.1,186.6 310.9,186.6 310.9,184.5 313.3,184.5 "/>
<polygon id="tree-13" class="st2" points="104.6,194.7 106.8,195.3 103.6,189 104.8,186.5 99.6,179.1 94.4,186.5 95.7,189 
	92.4,195.3 94.7,194.7 92.6,199.8 97.9,199.8 97.8,204 99.6,204 101.4,204 101.4,199.8 106.7,199.8 "/>
<polygon id="tree-14" class="st2" points="94.4,193.4 95.7,193.8 93.8,190.1 94.5,188.6 91.6,184.3 88.7,188.6 89.4,190.1 
	87.6,193.8 88.9,193.4 87.7,196.4 90.6,196.4 90.6,198.9 91.6,198.9 92.6,198.9 92.6,196.4 95.6,196.4 "/>
<path id="radar-stand" class="st6" d="M282,185.3h5v-11.6c0,0-2.5-2.5-5,0V185.3z"/>
<path id="radar-circle" class="st6" d="M283.3,156.7c0,0-5.3,18.4,15.5,16.5C298.8,173.1,295.6,163.3,283.3,156.7z"/>
<path id="radar-shadow" class="st7" d="M283.3,156.7c0,0-0.1,0.4-0.2,0.7l0,0c0,0,8.9,5.5,14.8,15.8c0.3,0,0.6,0,0.9,0
	C298.8,173.1,295.6,163.3,283.3,156.7z"/>
<path id="radar-antenna" class="st5" d="M289.2,165.6l7.1-6.8c0,0,0.5,0,0.5,0.5c0,0.3-7,6.6-7,6.6L289.2,165.6z"/>
<circle id="_x2D_radar-antenna-stand" class="st8" cx="289.7" cy="165.6" r="0.7"/>
</svg>
