<?xml version="1.0" encoding="UTF-8"?><!DOCTYPE svg PUBLIC "-//W3C//DTD SVG 1.1//EN" "http://www.w3.org/Graphics/SVG/1.1/DTD/svg11.dtd"><svg xmlns="http://www.w3.org/2000/svg"><symbol id="hero" viewBox="0 0 564 331.1"><g id="mountain-top"><path id="mountain-top-middle" d="M237.1 188.5l56.1-46.6-29.7 57.7z"/><path id="mountain-top-left" d="M158.7 184l34-14.4-10.2 12s-1.9 10.2-2.4 10.1c-.5 0-10.4-.2-15 1-.1.1-3.5-6.5-6.4-8.7z"/><path id="mountain-top-right" d="M342.4 168.2l39-28.1s-1.6 11.4-2.4 13.5c0 0-7.4 14.2-7.8 14.6 0 0-8.8 10.8-9.4 10.9l-19.4-10.9z"/></g><g id="blast"><path id="blast-left" d="M229.5 297.1s41.2-72.2 52.5-162.4c0 0-3.6 92-48.9 163.1l-3.6-.7z"/><path id="blast-right" d="M321.5 291.9S287.6 183.5 282 139.5c0 0 8.8 111.4 37.9 158.3 0 .1.3-3.7 1.6-5.9z"/><path id="blast-inner" d="M249.7 257.6s21.3-45.6 28.4-96.9l3.5-23.5s12.6 101.6 22.9 113.4l-12.9 18s-8-54.8-8.8-82.8c0 0-2.4 64.1-.9 85.9l-17.4-1.4s2.4-31.2 5.6-43.6c0 0-10.5 36.2-11 40.2l-9.4-9.3z"/></g><g id="mountains"><path id="mountains-left" d="M192.6 169.6l70.9 30 11.5-22.4s-7.8 47.4-25.4 77.2l-78.4-9.6-6.3-15.7 15.2-37.5 2.4-10.1 10.1-11.9z"/><path id="mountains-right" d="M293.5 141.3l68.4 37.8 9.3-10.9 7.8-14.6 2.4-13.5 42.4 18.7 37.2 1.8 13.3 7.3 9.9 6.7-87.4 82-67.6-12.4-14.2 10.3-8.3-8.6-21.6-88.2z"/></g><g id="smoke"><path id="smoke-outer" d="M0 30.2s22.5-3.4 32.5 27.1c0 0 8.7 30.8 2.7 36.7 0 0 18.8 2 21.3 43.8 0 0 18.5 15.3 22 25.8 0 0 21.5-21.5 62.5 49.5 0 0 23.4 29.4 35.7 43.5 0 0 115.8 32 144.8 11.5 0 0 30.8-28.5 59.9-17 0 0 21.8 11.5 33.7-4l132.7-119.9s4.7-15.6 16.2-18.1v222H0V30.2z"/><path id="smoke-inner" d="M32.5 57.2s34.5 13 33 47c0 0-13 3-14 5.5 0 0 27.5-9 34 19.5 0 0 27.5-2 42 33.5 0 0-14 4.5-14.5 6.5s27.5-15 52 23.5c0 0 42.5-12 56.5 39.5 0 0-28.5-3-49.5 9.5 0 0 50-22 79.5 15s52.5-11.5 52.5-11.5 8.5 1.5 12 4.5c0 0 18-22.5 41-21s35.5 15 39.5 24.5c0 0 1.5-4.5 0-11 0 0 17-16.5 24-15 0 0-1.7-55.4 55.4-57.7 0 0 1.2.2-3-2.5 0 0 4.6-5.5 13.1-3.2 0 0 13-38.2 47-33.2 0 0 3.4-12.1 17.2-9.1 0 0-8.7 15.1-.2 34.1l14 2s-40.5-3.5-42.5 40.5c0 0-23 9-29.5 19 0 0 14 3.5 19 9.5 0 0-39.5-22.5-55.5 18 0 0-41.8-6.8-55 21 0 0-33.3-28.3-68.5 4.9 0 0-10.5 8.6-12.5 33.6 0 0-12.9-5.6-23.5-4 0 0-24.2.6-35.5 14 0 0-16.5-21.5-49-17.5 0 0-22-51.5-79.5-28 0 0 20.5-15 27-15.5 0 0-11.8-21.1-32-17.5 0 0 3.4-32.2-14-57 0 0-10.1-14.6-34.5-15 0 0-22.5.5-37 9 0 0 20-13.5 23-15 0 0-3.2-14-12.5-18 0 0-1.8-23.9-10.5-36.2 0 0-5-8.8-19-17.2 0 0 12.5-26 10-29z"/></g><g id="stars"><path id="star8" d="M463.6 15s2 3.8 4.6 4.2c0 0-3.4 1.6-4.6 4.7 0 0-1.3-3.4-4.7-4.6.1 0 3.9-1.4 4.7-4.3z"/><path id="star7" d="M483.6 10.5s1.1 2.4 2.6 2.6c0 0-1.9 1-2.6 2.9 0 0-.8-2.1-2.6-2.9 0 0 2.1-.8 2.6-2.6z"/><path id="star6" d="M411.4 5s1.5 2.6 3.4 2.8c0 0-2.5 1.1-3.4 3.2 0 0-1-2.3-3.4-3.1 0 0 2.7-1 3.4-2.9z"/><path id="star5" d="M358 26.6s.9 1.5 2 1.6c0 0-1.5.6-2 1.8 0 0-.6-1.3-2-1.8 0 0 1.6-.5 2-1.6z"/><path id="star4" d="M211.4 5s1.5 3.5 3.4 3.8c0 0-2.5 1.4-3.4 4.2 0 0-1-3.1-3.4-4.2 0 0 2.7-1.2 3.4-3.8z"/><path id="star3" d="M154.9 20s2.2 4.3 5.1 4.7c0 0-3.8 1.8-5.1 5.3 0 0-1.5-3.8-5.1-5.2 0 0 4.1-1.6 5.1-4.8z"/><path id="star2" d="M82.9 0s2.2 4.3 5.1 4.7c0 0-3.8 1.8-5.1 5.3 0 0-1.5-3.8-5.1-5.2 0 0 4.1-1.6 5.1-4.8z"/><path id="star1" d="M48.9 18.7s.6 1.2 1.4 1.3c0 0-1 .5-1.4 1.4 0 0-.4-1-1.4-1.4 0-.1 1.1-.5 1.4-1.3z"/></g><g id="clouds"><path id="red-cloud-left" d="M178.4 97.2h43.4c.1-1 .1-.8.1-1 0-1.8-1.8-3.4-4-3.4-1.2 0-2.3.4-3 1.1-.6-1-1.8-1.8-3.2-1.9-.4-.5-1.1-1-1.8-1.2-.4-1.3-1.7-2.2-3.4-2.2-1.1 0-2.1.5-2.8 1.2-.5-.1-.9-.2-1.4-.2-1.7 0-3.2.7-4.1 1.8-.1-2-2.1-3.7-4.5-3.7-1.1 0-2 .3-2.8.8-.1-1.9-2-3.4-4.3-3.4-2.4 0-4.3 1.6-4.3 3.6 0 .3.1.7.2 1-.3 0-.6-.1-.9-.1-2.8 0-5 2.1-5 4.4.1 1.2.7 2.2 1.8 3.2z"/><path id="white-cloud-left" d="M192.9 101.2h30.2c.1-1 .1-.6.1-.9 0-1.5-1.2-2.8-2.8-2.8-.8 0-1.6.3-2.1.9-.4-.9-1.2-1.5-2.2-1.6-.3-.5-.8-.8-1.3-1-.2-1.1-1.2-1.9-2.3-1.9-.8 0-1.5.4-1.9 1-.3-.1-.6-.2-1-.2-1.2 0-2.2.6-2.8 1.5-.1-1.7-1.4-3.1-3.2-3.1-.7 0-1.4.3-1.9.7-.1-1.6-1.4-2.8-3-2.8-1.7 0-3 1.3-3 3 0 .3.1.6.1.8-.2 0-.4-.1-.6-.1-1.9 0-3.5 1.8-3.5 3.7 0 1.1.4 1.8 1.2 2.8z"/><path id="red-cloud-right" d="M415.1 98.2c-.5-2-2-2.9-3.9-2.9-.3 0-.6 0-.9.1-.6-.8-1.5-1.3-2.6-1.3-.9 0-1.7.3-2.3.9-.1-2-1.9-3.6-4-3.6-1.1 0-2.1.4-2.8 1.1.2-.6.3-1.1.3-1.7 0-3.5-3-6.3-6.6-6.3-3.1 0-5.7 2-6.4 4.8-.2 0-.4-.1-.7-.1-2.2 0-4.1 1.5-4.5 3.4-.5-.2-1-.4-1.6-.4-1.9 0-3.5 1.3-3.7 3.1-.3-.1-.5-.1-.8-.1-1.6 0-2.9 1.3-2.9 2.8v.1h43.4v.1z"/><path id="white-cloud-right" d="M433.1 93.2c-.4-2-1.9-2.8-3.6-2.8-.3 0-.6 0-.8.1-.5-.7-1.4-1.2-2.4-1.2-.8 0-1.6.3-2.1.9-.1-2-1.7-3.5-3.7-3.5-1 0-1.9.4-2.6 1.1.2-.5.2-1.1.2-1.7 0-3.4-2.7-6.1-6.1-6.1-2.9 0-5.3 2-5.9 4.7-.2 0-.4-.1-.6-.1-2 0-3.8 1.4-4.2 3.3-.5-.2-1-.3-1.5-.3-1.8 0-3.2 1.3-3.4 3-.2-.1-.5-.1-.7-.1-1.5 0-2.7 1.3-2.7 2.7v.1l40.1-.1z"/></g><g id="rocket"><path id="rocket-body" class="st0" d="M287.5 115s.5-11.1-.7-12.8c-1.1-1.6-4.8-4.9-4.8-4.9s-3.8 3.3-4.9 4.9c-1.2 1.7-.7 12.8-.7 12.8s-1.4 2.9-1.3 3.5c.1.9 2.6 0 3.2-.6h1.6l.1 1.9h3.9l.1-1.9h1.6c.6.6 3 1.5 3.2.6.1-.6-1.3-3.5-1.3-3.5z"/><circle id="glass" cx="282" cy="107.3" r="1.9"/><path id="outer-flame" d="M279.5 120.2h4.8s-.8.5-.3 1.7c0 0-.6.6-.3 1 0 0-1 .5-.5.9 0 0-.4 0-.4.9 0 0-.9-1.4-1.5-.3 0 0-.3-1.1-.8-.5 0 0 .3-1.6-.5-.9 0 0 .1-1.5-.4-1.2.1.1.6-.8-.1-1.6z"/><path id="inner-flame" d="M280.2 120.2s1.2.8.4 1.1c0 0 .7.5.2 1 0 0 .4-.4.7-.3.3.1.5.6.5.6s.5-1 1-.4c0 0-.2-1.1.3-.7 0 0-.3-.4-.3-.6 0-.2.7-.6.7-.6l-3.5-.1z"/></g></symbol><symbol id="random-icon" viewBox="0 0 50.2 26.8"><path fill="none" stroke="#FFF" stroke-width="3" stroke-linecap="round" stroke-linejoin="round" stroke-miterlimit="10" d="M48.8 1.7L25.2 25.2 1.7 1.7"/></symbol><symbol id="telescope" viewBox="0 0 196 196"><circle id="telescope-circle" class="st0" cx="98" cy="98" r="98"/><path id="telescope-body" d="M162.4 73.6l-49.1 27.1v12.8l26.3 38.1c1.6 2.3 1.2 5.5-1.1 7.1-.9.6-1.9.9-2.9.9-1.6 0-3.3-.8-4.3-2.2l-22.8-33.2V148c0 2.8-2.3 5.1-5.1 5.1s-5.1-2.3-5.1-5.1v-23.8l-22.6 33.2c-1 1.4-2.5 2.2-4.1 2.2-1 0-1.9-.3-2.8-.9-2.3-1.6-2.9-4.8-1.3-7.1l26.1-38.1V112l-8.7 4.8-20.2-36.3 77.9-43.2c1-.6 2.2-.8 3.3-.8 2.4 0 4.6 1.2 5.9 3.4l13.5 24.5c1.7 3.3.3 7.4-2.9 9.2zm-87.7 48.8l1.2-.7-20.1-36.2-1.2.7c-6.1 3.4-8.2 11-4.9 17.1l1.3 2.3-10.5 5.8-1-1.8c-1.4-2.5-4.5-3.4-6.9-2-2.5 1.4-3.4 4.5-2 6.9l6.9 12.5c.9 1.7 2.7 2.6 4.5 2.6.8 0 1.7-.2 2.5-.6 2.5-1.4 3.4-4.5 2-6.9l-1-1.8 10.5-5.8 1.7 3c3.3 6 10.9 8.2 17 4.9z"/></symbol><symbol id="twitter" viewBox="0 0 612 497.1"><path id="bird" class="st0" d="M612 58.8c-22.5 10-46.7 16.7-72.1 19.8 25.9-15.5 45.8-40.2 55.2-69.4-24.3 14.4-51.2 24.8-79.8 30.5C492.4 15.2 459.8 0 423.7 0c-69.3 0-125.6 56.2-125.6 125.5 0 9.8 1.1 19.4 3.3 28.6-104.3-5.2-196.8-55.2-258.8-131.2C31.8 41.5 25.7 63 25.7 86c0 43.6 22.2 82 55.8 104.5-20.6-.7-39.9-6.3-56.9-15.8v1.6c0 60.8 43.3 111.6 100.7 123.1-10.5 2.8-21.6 4.4-33.1 4.4-8.1 0-15.9-.8-23.6-2.3 16 49.9 62.3 86.2 117.3 87.2C143 422.4 88.8 442.4 30 442.4c-10.1 0-20.1-.6-29.9-1.7 55.6 35.7 121.5 56.5 192.4 56.5 230.9 0 357.2-191.3 357.2-357.2l-.4-16.3c24.6-17.6 45.9-39.7 62.7-64.9z"/></symbol></svg>