<?xml version="1.0" encoding="UTF-8"?><!DOCTYPE svg PUBLIC "-//W3C//DTD SVG 1.1//EN" "http://www.w3.org/Graphics/SVG/1.1/DTD/svg11.dtd"><svg xmlns="http://www.w3.org/2000/svg"><defs><linearGradient id="rocket-gradient" gradientUnits="userSpaceOnUse" x1="276.058" y1="106.699" x2="284.271" y2="110.972"><stop offset="0" stop-color="#FFF"/><stop offset="1"/></linearGradient></defs><symbol id="astronaut" viewBox="0 0 196 196"><circle id="astronaut-circle" class="st0" cx="98" cy="98" r="98"/><path id="helmet" class="st1" d="M50.9 109.5v20.4c0 3.5 21 6.4 47 6.4s47-2.9 47-6.4v-20.3c3.7-.8 6.4-4 6.4-7.9V80.2c0-4.3-3.4-7.9-7.7-8.1-4.8-20.8-23.5-36.3-45.8-36.3-22.3 0-40.9 15.5-45.8 36.3-4.2.3-7.5 3.8-7.5 8.1v21.4c.1 3.9 2.8 7.1 6.4 7.9zM61.2 85c0-9.3 7.6-16.9 16.9-16.9h39.8c9.3 0 16.9 7.6 16.9 16.9v10.3c-3.3 3.7-6.6 7.3-9.9 11h-15.7a5.6 5.6 0 0 0-4.7-2.5c-3.1 0-5.6 2.5-5.6 5.6s2.5 5.6 5.6 5.6c1.7 0 3.2-.7 4.2-1.9h17.4c1.8 0 2.2-.6 3.1-1.5l5.6-6.2c-.2 9.2-7.7 16.6-16.9 16.6H78.1c-9.3 0-16.9-7.6-16.9-16.9V85z"/><path id="scarf" class="st1" d="M148.2 136.1c-6.4 2.9-26.5 5.1-50.2 5.1-23.7 0-43.8-2.1-50.2-5.1-1-.5-2.1.3-2.1 1.4V153c0 3.9 23.4 7.1 52.3 7.1s52.3-3.2 52.3-7.1v-15.5c0-1.1-1.1-1.8-2.1-1.4z"/></symbol><symbol id="footer-planet" viewBox="0 0 564 972"><style>.st0{fill:#efefef}.st1{fill:#656565}.st2{fill:#df4054}.st3{fill:#48434a}.st4{fill:#544f5b}.st5{fill:#c9c7c8}.st6{fill:#f7f8f6}.st7{fill:#e5e5e5}.st8{fill:#a8a8a8}</style><path id="colony-planet" class="st0" d="M417.4 16.1s4.1-4.7 10.2-6c0 0 3.4-4.6 6.6-.9 0 0 4.1-.1 5 .4s15.1 2.2 18.8 21.1c0 0 3.4.8 0 9.2 0 0-1 4.5-1.6 4.9 0 0 .9 8.6-6.6 8.1 0 0-10.5 11.6-27.5 2.5 0 0-3 .6-6-2.4 0 0-1.4-1.9-2.9-2.5 0 0-1.1-3.2-.8-4 0 0-6.5-11.1-1.2-23.1 0 0-1.6-7 6-7.3z"/><ellipse id="planet-crater-1" class="st1" cx="434.4" cy="18.9" rx="4.8" ry="2.4"/><ellipse id="planet-crater-2" transform="rotate(-52.406 436.453 39.585)" class="st1" cx="436.5" cy="39.6" rx="5.2" ry="3.8"/><circle id="planet-crater-3" class="st1" cx="422.8" cy="37.7" r="2.9"/><path id="planet-flag-stange" class="st1" d="M439.1 9.7l1.7-4.3 1 .3-1.3 4z"/><path id="planet-flag-1" class="st2" d="M441.8 4.3l2.8.4s2-3.2 1.1-4.1l-3.9-.3v4z"/><path id="planet-flag-2" class="st2" d="M446.3 3.2V7l3.9.6s1.1-3.4-.5-4.3l-3.4-.1z"/><path id="tree-star-1" class="st3" d="M545.2 21.9c-.7 4-1.3 4.6-5.4 5.4 4 .7 4.6 1.3 5.4 5.4.7-4 1.3-4.6 5.4-5.4-4.1-.8-4.7-1.4-5.4-5.4z"/><path id="tree-star-2" class="st3" d="M340.7 25.3c-.4 2-.7 2.3-2.7 2.7 2 .4 2.3.7 2.7 2.7.4-2 .7-2.3 2.7-2.7-2-.4-2.3-.7-2.7-2.7z"/><path id="tree-star-3" class="st4" d="M231.1 48.3c-.6 3.1-1.1 3.6-4.3 4.1 3.2.6 3.7 1 4.3 4.1.6-3.1 1.1-3.6 4.3-4.1-3.2-.5-3.7-1-4.3-4.1z"/><path id="tree-star-4" class="st4" d="M113.6 35.4c-.7 3.9-1.4 4.5-5.4 5.3 4.1.7 4.7 1.3 5.4 5.3.7-3.9 1.4-4.5 5.4-5.3-4.1-.7-4.7-1.3-5.4-5.3z"/><path id="tree-star-5" class="st4" d="M124.9 22c-.4 2-.7 2.3-2.7 2.6 2 .4 2.3.7 2.7 2.6.4-2 .7-2.3 2.7-2.6-2.1-.4-2.4-.6-2.7-2.6z"/><path id="tree-star-6" class="st4" d="M57.3 18.6c-.5 2.5-.9 2.9-3.4 3.3 2.6.5 3 .8 3.4 3.3.5-2.5.9-2.9 3.4-3.3-2.5-.4-2.9-.8-3.4-3.3z"/><path id="tree-star-7" class="st3" d="M503.7 0c-.4 2.4-.8 2.7-3.2 3.2 2.4.4 2.7.8 3.2 3.2.4-2.4.8-2.7 3.2-3.2-2.4-.5-2.8-.8-3.2-3.2z"/><path id="tree-cloud-1" class="st5" d="M177.2 146.2H202s2.6-8.4-7.2-7.7c0 0-7.2-7.5-13 1.7 0 .1-5.7.4-4.6 6z"/><path id="tree-cloud-2" class="st6" d="M153.2 142.4h32s3.4-10.9-9.2-9.9c0 0-9.2-9.6-16.8 2.2 0 .1-7.3.5-6 7.7z"/><path id="tree-cloud-3" class="st6" d="M368.8 142.4h32s3.4-10.9-9.2-9.9c0 0-9.2-9.6-16.8 2.2 0 .1-7.4.5-6 7.7z"/><path id="tree-cloud-4" class="st5" d="M328.4 147.3H347s2-6.3-5.4-5.8c0 0-5.4-5.6-9.8 1.3.1 0-4.2.2-3.4 4.5z"/><path id="tree-base" class="st2" d="M0 210.4s256.2-57.9 564 0V972H0V210.4z"/><path id="tree-1_1_" class="st2" d="M124.5 184.2l3.1.8-4.5-7.3 1.7-2.9-7.2-8.5-7.3 8.5 1.8 2.9-4.5 7.3 3.1-.8-2.9 6h7.3v4.8h5l-.1-4.8h7.4z"/><path id="tree-2" class="st2" d="M138.2 185.3l1.9.6-2.8-6.5 1.1-2.7-4.6-7.6-4.5 7.6 1.1 2.7-2.8 6.5 1.9-.6-1.8 5.4h4.6v4.3h3.1v-4.3h4.6z"/><path id="tree-3" class="st2" d="M151.4 185.9l1.4.4-2-3.8.8-1.5-3.1-4.3-3.1 4.3.8 1.5-2 3.8 1.4-.4-1.3 3h3.2l-.1 2.5h2.2l-.1-2.5h3.2z"/><path id="tree-4" class="st2" d="M245.3 180.4l1.7.4-2.4-3.8.9-1.5-3.9-4.3-3.9 4.3 1 1.5-2.5 3.8 1.7-.4-1.6 3h4v2.5h2.7l-.1-2.5h4z"/><path id="tree-5" class="st2" d="M332.3 177.3l2.4.7-3.5-6.8 1.4-2.7-5.7-7.9-5.7 7.9 1.3 2.7-3.5 6.8 2.5-.7-2.4 5.6h5.8v4.5h3.9v-4.5h5.8z"/><path id="tree-6" class="st2" d="M389.4 177.8l3.1.7-4.5-7.5 1.7-3-7.3-8.7-7.2 8.7 1.7 3-4.5 7.5 3.1-.7-2.9 6.1h7.4l-.1 5h5.1l-.1-5h7.4z"/><path id="tree-7" class="st2" d="M417.6 186.3l1.6.4-2.3-3.6.9-1.4-3.6-4.1-3.5 4.1.9 1.4-2.3 3.6 1.6-.4-1.5 2.9h3.6v2.4h2.5v-2.4h3.6z"/><path id="tree-8" class="st2" d="M474.9 187.2l3.3.8-4.8-7.7 1.9-3.1-7.7-8.9-7.7 8.9 1.8 3.1-4.8 7.7 3.4-.8-3.2 6.3h7.9l-.1 5H470.2v-5h7.8z"/><path id="tree-9" class="st2" d="M455.3 188.7l1.6.4-2.3-4.5.9-1.8-3.8-5.2-3.8 5.2.9 1.8-2.3 4.5 1.6-.4-1.5 3.6h3.8v3h2.6v-3h3.9z"/><path id="tree-10" class="st2" d="M488.8 193.8l1.4.3-2-3.2.7-1.3-3.2-3.8-3.2 3.8.7 1.3-2 3.2 1.4-.3-1.3 2.6h3.3v2.1h2.2v-2.1h3.3z"/><path id="tree-11" class="st2" d="M320.2 181.1l1.3.4-1.8-4.2.7-1.7-3-5-3 5 .8 1.7-1.9 4.2 1.3-.4-1.2 3.5h3v2.8h2v-2.8h3z"/><path id="tree-12" class="st2" d="M312.3 181.9l1 .3-1.4-3.2.5-1.2-2.3-3.7-2.3 3.7.5 1.2-1.4 3.2 1-.3-1 2.6h2.4v2.1h1.6v-2.1h2.4z"/><path id="tree-13" class="st2" d="M104.6 194.7l2.2.6-3.2-6.3 1.2-2.5-5.2-7.4-5.2 7.4 1.3 2.5-3.3 6.3 2.3-.6-2.1 5.1h5.3l-.1 4.2h3.6v-4.2h5.3z"/><path id="tree-14" class="st2" d="M94.4 193.4l1.3.4-1.9-3.7.7-1.5-2.9-4.3-2.9 4.3.7 1.5-1.8 3.7 1.3-.4-1.2 3h2.9v2.5h2v-2.5h3z"/><path id="radar-stand" class="st6" d="M282 185.3h5v-11.6s-2.5-2.5-5 0v11.6z"/><path id="radar-circle" class="st6" d="M283.3 156.7s-5.3 18.4 15.5 16.5c0-.1-3.2-9.9-15.5-16.5z"/><path id="radar-shadow" class="st7" d="M283.3 156.7s-.1.4-.2.7c0 0 8.9 5.5 14.8 15.8h.9c0-.1-3.2-9.9-15.5-16.5z"/><path id="radar-antenna" class="st5" d="M289.2 165.6l7.1-6.8s.5 0 .5.5c0 .3-7 6.6-7 6.6l-.6-.3z"/><circle id="_x2D_radar-antenna-stand" class="st8" cx="289.7" cy="165.6" r=".7"/></symbol><symbol id="hero" viewBox="0 0 564 331.1"><style>.st1{font-family:'Montserrat-Bold'}.st2{font-size:28px}.st3{letter-spacing:-1}</style><g id="mountain-top"><path id="mountain-top-middle" d="M237.1 188.5l56.1-46.6-29.7 57.7z"/><path id="mountain-top-left" d="M158.7 184l34-14.4-10.2 12s-1.9 10.2-2.4 10.1c-.5 0-10.4-.2-15 1-.1.1-3.5-6.5-6.4-8.7z"/><path id="mountain-top-right" d="M342.4 168.2l39-28.1s-1.6 11.4-2.4 13.5c0 0-7.4 14.2-7.8 14.6 0 0-8.8 10.8-9.4 10.9l-19.4-10.9z"/></g><g id="blast"><path id="blast-left" d="M229.5 297.1s41.2-72.2 52.5-162.4c0 0-3.6 92-48.9 163.1l-3.6-.7z"/><path id="blast-right" d="M321.5 291.9S287.6 183.5 282 139.5c0 0 8.8 111.4 37.9 158.3 0 .1.3-3.7 1.6-5.9z"/><path id="blast-inner" d="M249.7 257.6s21.3-45.6 28.4-96.9l3.5-23.5s12.6 101.6 22.9 113.4l-12.9 18s-8-54.8-8.8-82.8c0 0-2.4 64.1-.9 85.9l-17.4-1.4s2.4-31.2 5.6-43.6c0 0-10.5 36.2-11 40.2l-9.4-9.3z"/></g><g id="mountains"><path id="mountains-left" d="M192.6 169.6l70.9 30 11.5-22.4s-7.8 47.4-25.4 77.2l-78.4-9.6-6.3-15.7 15.2-37.5 2.4-10.1 10.1-11.9z"/><path id="mountains-right" d="M293.5 141.3l68.4 37.8 9.3-10.9 7.8-14.6 2.4-13.5 42.4 18.7 37.2 1.8 13.3 7.3 9.9 6.7-87.4 82-67.6-12.4-14.2 10.3-8.3-8.6-21.6-88.2z"/></g><g id="smoke"><path id="smoke-outer" d="M0 30.2s22.5-3.4 32.5 27.1c0 0 8.7 30.8 2.7 36.7 0 0 18.8 2 21.3 43.8 0 0 18.5 15.3 22 25.8 0 0 21.5-21.5 62.5 49.5 0 0 23.4 29.4 35.7 43.5 0 0 115.8 32 144.8 11.5 0 0 30.8-28.5 59.9-17 0 0 21.8 11.5 33.7-4l132.7-119.9s4.7-15.6 16.2-18.1v222H0V30.2z"/><path id="smoke-inner" d="M32.5 57.2s34.5 13 33 47c0 0-13 3-14 5.5 0 0 27.5-9 34 19.5 0 0 27.5-2 42 33.5 0 0-14 4.5-14.5 6.5s27.5-15 52 23.5c0 0 42.5-12 56.5 39.5 0 0-28.5-3-49.5 9.5 0 0 50-22 79.5 15s52.5-11.5 52.5-11.5 8.5 1.5 12 4.5c0 0 18-22.5 41-21s35.5 15 39.5 24.5c0 0 1.5-4.5 0-11 0 0 17-16.5 24-15 0 0-1.7-55.4 55.4-57.7 0 0 1.2.2-3-2.5 0 0 4.6-5.5 13.1-3.2 0 0 13-38.2 47-33.2 0 0 3.4-12.1 17.2-9.1 0 0-8.7 15.1-.2 34.1l14 2s-40.5-3.5-42.5 40.5c0 0-23 9-29.5 19 0 0 14 3.5 19 9.5 0 0-39.5-22.5-55.5 18 0 0-41.8-6.8-55 21 0 0-33.3-28.3-68.5 4.9 0 0-10.5 8.6-12.5 33.6 0 0-12.9-5.6-23.5-4 0 0-24.2.6-35.5 14 0 0-16.5-21.5-49-17.5 0 0-22-51.5-79.5-28 0 0 20.5-15 27-15.5 0 0-11.8-21.1-32-17.5 0 0 3.4-32.2-14-57 0 0-10.1-14.6-34.5-15 0 0-22.5.5-37 9 0 0 20-13.5 23-15 0 0-3.2-14-12.5-18 0 0-1.8-23.9-10.5-36.2 0 0-5-8.8-19-17.2 0 0 12.5-26 10-29z"/></g><g id="stars"><path id="star8" d="M463.6 15s2 3.8 4.6 4.2c0 0-3.4 1.6-4.6 4.7 0 0-1.3-3.4-4.7-4.6.1 0 3.9-1.4 4.7-4.3z"/><path id="star7" d="M483.6 10.5s1.1 2.4 2.6 2.6c0 0-1.9 1-2.6 2.9 0 0-.8-2.1-2.6-2.9 0 0 2.1-.8 2.6-2.6z"/><path id="star6" d="M411.4 5s1.5 2.6 3.4 2.8c0 0-2.5 1.1-3.4 3.2 0 0-1-2.3-3.4-3.1 0 0 2.7-1 3.4-2.9z"/><path id="star5" d="M358 26.6s.9 1.5 2 1.6c0 0-1.5.6-2 1.8 0 0-.6-1.3-2-1.8 0 0 1.6-.5 2-1.6z"/><path id="star4" d="M211.4 5s1.5 3.5 3.4 3.8c0 0-2.5 1.4-3.4 4.2 0 0-1-3.1-3.4-4.2 0 0 2.7-1.2 3.4-3.8z"/><path id="star3" d="M154.9 20s2.2 4.3 5.1 4.7c0 0-3.8 1.8-5.1 5.3 0 0-1.5-3.8-5.1-5.2 0 0 4.1-1.6 5.1-4.8z"/><path id="star2" d="M82.9 0s2.2 4.3 5.1 4.7c0 0-3.8 1.8-5.1 5.3 0 0-1.5-3.8-5.1-5.2 0 0 4.1-1.6 5.1-4.8z"/><path id="star1" d="M48.9 18.7s.6 1.2 1.4 1.3c0 0-1 .5-1.4 1.4 0 0-.4-1-1.4-1.4 0-.1 1.1-.5 1.4-1.3z"/></g><g id="clouds"><path id="red-cloud-left" d="M178.4 97.2h43.4c.1-1 .1-.8.1-1 0-1.8-1.8-3.4-4-3.4-1.2 0-2.3.4-3 1.1-.6-1-1.8-1.8-3.2-1.9-.4-.5-1.1-1-1.8-1.2-.4-1.3-1.7-2.2-3.4-2.2-1.1 0-2.1.5-2.8 1.2-.5-.1-.9-.2-1.4-.2-1.7 0-3.2.7-4.1 1.8-.1-2-2.1-3.7-4.5-3.7-1.1 0-2 .3-2.8.8-.1-1.9-2-3.4-4.3-3.4-2.4 0-4.3 1.6-4.3 3.6 0 .3.1.7.2 1-.3 0-.6-.1-.9-.1-2.8 0-5 2.1-5 4.4.1 1.2.7 2.2 1.8 3.2z"/><path id="white-cloud-left" d="M192.9 101.2h30.2c.1-1 .1-.6.1-.9 0-1.5-1.2-2.8-2.8-2.8-.8 0-1.6.3-2.1.9-.4-.9-1.2-1.5-2.2-1.6-.3-.5-.8-.8-1.3-1-.2-1.1-1.2-1.9-2.3-1.9-.8 0-1.5.4-1.9 1-.3-.1-.6-.2-1-.2-1.2 0-2.2.6-2.8 1.5-.1-1.7-1.4-3.1-3.2-3.1-.7 0-1.4.3-1.9.7-.1-1.6-1.4-2.8-3-2.8-1.7 0-3 1.3-3 3 0 .3.1.6.1.8-.2 0-.4-.1-.6-.1-1.9 0-3.5 1.8-3.5 3.7 0 1.1.4 1.8 1.2 2.8z"/><path id="red-cloud-right" d="M415.1 98.2c-.5-2-2-2.9-3.9-2.9-.3 0-.6 0-.9.1-.6-.8-1.5-1.3-2.6-1.3-.9 0-1.7.3-2.3.9-.1-2-1.9-3.6-4-3.6-1.1 0-2.1.4-2.8 1.1.2-.6.3-1.1.3-1.7 0-3.5-3-6.3-6.6-6.3-3.1 0-5.7 2-6.4 4.8-.2 0-.4-.1-.7-.1-2.2 0-4.1 1.5-4.5 3.4-.5-.2-1-.4-1.6-.4-1.9 0-3.5 1.3-3.7 3.1-.3-.1-.5-.1-.8-.1-1.6 0-2.9 1.3-2.9 2.8v.1l43.4.1z"/><path id="white-cloud-right" d="M433.1 93.2c-.4-2-1.9-2.8-3.6-2.8-.3 0-.6 0-.8.1-.5-.7-1.4-1.2-2.4-1.2-.8 0-1.6.3-2.1.9-.1-2-1.7-3.5-3.7-3.5-1 0-1.9.4-2.6 1.1.2-.5.2-1.1.2-1.7 0-3.4-2.7-6.1-6.1-6.1-2.9 0-5.3 2-5.9 4.7-.2 0-.4-.1-.6-.1-2 0-3.8 1.4-4.2 3.3-.5-.2-1-.3-1.5-.3-1.8 0-3.2 1.3-3.4 3-.2-.1-.5-.1-.7-.1-1.5 0-2.7 1.3-2.7 2.7v.1l40.1-.1z"/></g><g id="rocket"><path id="rocket-body" fill="url(#rocket-gradient)" d="M287.5 115s.5-11.1-.7-12.8c-1.1-1.6-4.8-4.9-4.8-4.9s-3.8 3.3-4.9 4.9c-1.2 1.7-.7 12.8-.7 12.8s-1.4 2.9-1.3 3.5c.1.9 2.6 0 3.2-.6h1.6l.1 1.9h3.9l.1-1.9h1.6c.6.6 3 1.5 3.2.6.1-.6-1.3-3.5-1.3-3.5z"/><circle id="glass" cx="282" cy="107.3" r="1.9"/><path id="outer-flame" d="M279.5 120.2h4.8s-.8.5-.3 1.7c0 0-.6.6-.3 1 0 0-1 .5-.5.9 0 0-.4 0-.4.9 0 0-.9-1.4-1.5-.3 0 0-.3-1.1-.8-.5 0 0 .3-1.6-.5-.9 0 0 .1-1.5-.4-1.2.1.1.6-.8-.1-1.6z"/><path id="inner-flame" d="M280.2 120.2s1.2.8.4 1.1c0 0 .7.5.2 1 0 0 .4-.4.7-.3.3.1.5.6.5.6s.5-1 1-.4c0 0-.2-1.1.3-.7 0 0-.3-.4-.3-.6s.7-.6.7-.6l-3.5-.1z"/></g><text id="hero-text" transform="translate(242.937 45)" class="st1 st2 st3">LOGO</text></symbol><symbol id="layout" viewBox="0 0 453 453"><style>.st0{fill:#da5463}</style><path id="layout-top" class="st0" d="M238.3 112.1H453v264.2H238.3z"/><path id="layout-right" class="st0" d="M0 0h453v88.5H0z"/><path id="layout-left" class="st0" d="M0 112.1h214.7v264.2H0z"/><path id="layout-bottom" class="st0" d="M0 399.9h453v53H0z"/></symbol><symbol id="paper" viewBox="0 0 237.6 325"><style>.st0{fill:#da5463}</style><path id="paper-clip" class="st0" d="M190 325h5.5c1.7 0 3.3-.7 4.5-2l36.1-40.4c1-1.1 1.5-2.5 1.5-4v-4.7H190V325z"/><path id="paper-body" class="st0" d="M231.6 0H6C2.7 0 0 2.7 0 6v313c0 3.3 2.7 6 6 6h168v-59.1c0-4.4 3.6-8 8-8h55.6V6c0-3.3-2.7-6-6-6zM87.2 261.4H33.1c-4.4 0-8-3.6-8-8s3.6-8 8-8h54.1c4.4 0 8 3.6 8 8s-3.6 8-8 8zm117.3-60.6H33.1c-4.4 0-8-3.6-8-8s3.6-8 8-8h171.4c4.4 0 8 3.6 8 8s-3.6 8-8 8zm0-60.6H33.1c-4.4 0-8-3.6-8-8s3.6-8 8-8h171.4c4.4 0 8 3.6 8 8s-3.6 8-8 8zm0-60.6H33.1c-4.4 0-8-3.6-8-8s3.6-8 8-8h171.4c4.4 0 8 3.6 8 8s-3.6 8-8 8z"/></symbol><symbol id="profile-img" viewBox="0 0 381 381"><circle id="profile-circle" class="st0" cx="190.5" cy="190.5" r="190.5"/><path id="silhouette" class="st1" d="M129.4 269.6c-.2 1.6-1.7 3.8-3 4.1-3.8 1.1-5.7 5.2-6.9 9.3l-3.9 12.3L57.5 326c34.3 33.6 81.2 54.4 133 54.4s98.8-20.8 133-54.4l-58.1-30.7-3.9-12.3c-1.2-4.1-3-8.2-6.9-9.3-1.2-.3-2.8-2.6-3-4.1l-2.3-23.9c-.1-2 .7-3.9 1.8-5.2 6.5-7.8 10.1-16.9 11.6-27.3.8-5.2 3.5-10 4.9-15.1l5.5-28.6c.6-3.8.5-6.7-3.7-8.1-1.2-.4-2.2-2.3-2.2-5.2l.1-54c-.9-13.1-7.8-23.2-17.6-30.2-18.7-13.4-52.3-7.2-41.3-29.1.6-1.3.4-3.5-4.1-1.9-16.8 6.2-61.5 22.5-72.8 31-10.1 7.6-16.7 17.1-17.6 30.2l.1 54c0 2.4-1 4.8-2.2 5.2-4.2 1.5-4.3 4.4-3.7 8.1l5.5 28.6c1.4 5.1 4.1 9.9 4.9 15.1 1.5 10.4 5.1 19.4 11.6 27.3 1.1 1.3 1.9 3.1 1.8 5.2l-2.5 23.9z"/></symbol><symbol id="profile-planet" viewBox="0 0 777.2 302.6"><style>.st0{fill:#e56776}.st1{fill:#b8505a}.st2{fill:#c3737e}.st3{fill:#9c94a1}.st4{fill:#7f7685}.st5{fill:#655d6b}.st6{fill:#625b6a}</style><circle id="planet-circle" class="st0" cx="574.4" cy="102.5" r="102.5"/><path id="plantet-shade-1" class="st1" d="M614.6 8.2s-69.2 19.3-79.2 36.1c-8 13.4-36.2 7.8-48.4 4.7-6.8 11.1-11.5 23.5-13.7 36.9 17.2-4.3 48.8-13.8 67.1-29.3 26-22 67 1.5 76.5 0s32-19.2 35-21.1C641.8 23.7 629 14.3 614.6 8.2z"/><path id="plantet-shade-2" class="st1" d="M545.9 82c13.7-5.8 28 6.6 40 3.8s40-5.4 42.5-3.9c2.5 1.5-5.5 15-13 17s-41-9.5-59.5 0c-9.6 5-23-11.4-10-16.9z"/><path id="plantet-shade-3" class="st1" d="M647.8 174c-7.2 2.8-15.4 5.1-24.4 6-20.2 2-28.1 14.8-31.1 23.4 21.6-3.7 40.8-14.3 55.5-29.4z"/><path id="plantet-shade-4" class="st2" d="M604.4 106.5c-13-4-71-1.5-81 3.5-7.2 3.6-34.4 10.5-49.2 14.1 6 27.7 23.1 51.2 46.5 65.6 37.3 7.8 64.2-27.8 88.2-41.3 13.2-7.4 40.1-10 61.8-10.8 4-11 6.2-22.8 6.2-35.2v-2.6c-6.1 3.5-59.5 10.7-72.5 6.7z"/><path id="planet-outer-1" class="st3" d="M473.9 122.7l-.6-3.4s-60 15.7-85.9 24.5c-275 93.8 196 41.3 334-22.5 77.2-35.7 86.2-64.4-49.1-49.3l1 3.4c91.1 29.7-274 118.3-199.4 47.3z"/><path id="planet-outer-2" class="st4" d="M474.4 125l-.5-2.4s-42.5 13.8-65.8 22.3c-166.7 61.2 167.4 16.3 282-28.5 88.8-34.7 63-42.1-16.8-41.2l.8 3c72.8 22.2-255.8 100.9-199.7 46.8z"/><path id="planet-outer-2_1_" class="st5" d="M474.4 125l.9 3.8c-6.3 4.3-5.5 11.3 5.3 11.1 73.5-1.2 182.7-37.7 193.7-44.1 13.6-7.9 5-12.3.2-15.3l-.5-2.3s2.2-.4 10.9 2.2c20.3 6-18.1 38.6-146.3 58.1-149.5 23-64.2-13.5-64.2-13.5z"/><path id="planet-star-1_1_" class="st6" d="M327.1 236c-1.7 9.3-3.1 10.7-12.4 12.4 9.3 1.7 10.7 3.1 12.4 12.4 1.7-9.3 3.1-10.7 12.4-12.4-9.3-1.7-10.7-3.1-12.4-12.4z"/><path id="planet-star-2" class="st6" d="M487.5 277.7c-1.7 9.3-3.1 10.7-12.4 12.4 9.3 1.7 10.7 3.1 12.4 12.4 1.7-9.3 3.1-10.7 12.4-12.4-9.3-1.6-10.7-3-12.4-12.4z"/><path id="planet-star-3" class="st6" d="M10.8 203.4c-1.5 8.1-2.7 9.3-10.8 10.8 8.1 1.5 9.3 2.7 10.8 10.8 1.5-8.1 2.7-9.3 10.8-10.8-8.1-1.4-9.3-2.6-10.8-10.8z"/><path id="planet-star-4" class="st6" d="M310.1 75.5c-1 5.5-1.8 6.3-7.4 7.4 5.5 1 6.3 1.8 7.4 7.4 1-5.5 1.8-6.3 7.4-7.4-5.6-1.1-6.4-1.9-7.4-7.4z"/><path id="planet-star-5" class="st6" d="M180 258.1c-1.4 7.4-2.5 8.5-9.8 9.8 7.4 1.4 8.5 2.5 9.8 9.8 1.4-7.4 2.5-8.5 9.8-9.8-7.4-1.3-8.5-2.4-9.8-9.8z"/><path id="planet-star-6" class="st6" d="M132.3 120.1c-.7 3.7-1.2 4.2-4.9 4.9 3.7.7 4.2 1.2 4.9 4.9.7-3.7 1.2-4.2 4.9-4.9-3.7-.6-4.2-1.2-4.9-4.9z"/><path id="planet-star-7" class="st6" d="M86.6 80.4c-1.4 7.4-2.5 8.5-9.8 9.8 7.4 1.4 8.5 2.5 9.8 9.8 1.4-7.4 2.5-8.5 9.8-9.8-7.3-1.4-8.4-2.5-9.8-9.8z"/></symbol><symbol id="random-icon" viewBox="0 0 50.2 26.8"><path fill="none" stroke="#FFF" stroke-width="3" stroke-linecap="round" stroke-linejoin="round" stroke-miterlimit="10" d="M48.8 1.7L25.2 25.2 1.7 1.7"/></symbol><symbol id="signal" viewBox="0 0 196 196"><style>.st0{fill:#FFF}</style><circle id="signal-circle" cx="98" cy="98" r="98"/><g id="signal-inner"><path id="wave-3" class="st0" d="M121.9 106.5c-2.2-9.3-7.7-17.5-15.5-23.1-7.7-5.6-17.3-8.3-26.8-7.5-.3 0-.5.1-.7.1-2.1.4-3.2 1.5-2.9 3l.8 4.8c.4 2.6 2.5 2.3 3.4 2.2h.4c14.5-1.1 27.6 8.3 31.2 22.3v.1c.2.8.7 2.8 3 2.4l5.1-.9c.9-.2 1.5-.5 1.8-1 .5-.7.3-1.6.1-2.3.1.1.1 0 .1-.1z"/><path id="wave-2" class="st0" d="M120.7 63.5c-13-9.4-28.9-13.6-44.8-11.9h-.3c-.4 0-.8.1-1.2.1-1.9.3-2.8 1.2-2.6 2.7l.9 5.4c.4 2.3 3.2 2.1 4.7 1.9h.3C105 59 130.1 77.3 136.1 104c.2.8.7 3.1 2.9 2.7l5.7-1c.6-.1 1-.4 1.3-.8.5-.8.4-1.9.2-2.6-3.4-15.6-12.5-29.4-25.5-38.8z"/><path id="wave-1" class="st0" d="M169.8 97.5c-4.6-21.6-17-40.6-34.9-53.6C117 31 95.1 25.2 73.2 27.6H73c-.5 0-1 .1-1.6.2-2.7.5-3.9 1.5-3.6 3.2l.9 5.1c.4 2.6 3.4 2.1 5.3 1.8.4-.1.8-.1 1.1-.2 40-4 76.4 22.5 84.8 61.8 0 .1 0 .2.1.3.2 1.1.6 3.3 3.3 2.8l4.7-.8c.7-.1 1.3-.5 1.6-1 .6-1 .4-2.4.2-3.3z"/><ellipse id="signal-inner-circle" transform="rotate(-9.782 82.85 115.96)" class="st0" cx="82.8" cy="115.9" rx="14.4" ry="14.4"/></g></symbol><symbol id="stamp" viewBox="0 0 523.4 612"><style>.st0{fill:#da5463}</style><path id="stamp-bottom" class="st0" d="M484 555.3H39.4c-8 0-14.6 6.5-14.6 14.6v27.6c0 8 6.5 14.6 14.6 14.6H484c8 0 14.6-6.5 14.6-14.6v-27.6c0-8.1-6.5-14.6-14.6-14.6z"/><path id="stamp-body" class="st0" d="M509.8 433c-1.5-8.6-5.2-19.2-13.6-28.6-11.8-13.2-29.4-19.8-52.2-19.8-50.4 0-130.5-34.7-130.5-127.9 0-50.5 30.5-111.1 30.8-111.7l.3-.6c8.6-14.7 13.2-31.4 13.2-48.4 0-52.9-43.1-96-96-96s-96 43.1-96 96c0 17 4.5 33.6 13.2 48.4l.3.6c.3.6 30.8 61.3 30.8 111.7 0 93.2-80 127.9-130.5 127.9-22.8 0-40.4 6.7-52.2 19.8-8.4 9.4-12.1 20-13.6 28.6C6 433.5 0 439.8 0 447.5v80.3c0 8 6.5 14.6 14.6 14.6h494.3c8 0 14.6-6.5 14.6-14.6v-80.3c-.1-7.7-6.1-14-13.7-14.5z"/></symbol><symbol id="telescope" viewBox="0 0 196 196"><circle id="telescope-circle" class="st0" cx="98" cy="98" r="98"/><path id="telescope-body" d="M162.4 73.6l-49.1 27.1v12.8l26.3 38.1c1.6 2.3 1.2 5.5-1.1 7.1-.9.6-1.9.9-2.9.9-1.6 0-3.3-.8-4.3-2.2l-22.8-33.2V148c0 2.8-2.3 5.1-5.1 5.1s-5.1-2.3-5.1-5.1v-23.8l-22.6 33.2c-1 1.4-2.5 2.2-4.1 2.2-1 0-1.9-.3-2.8-.9-2.3-1.6-2.9-4.8-1.3-7.1l26.1-38.1V112l-8.7 4.8-20.2-36.3 77.9-43.2c1-.6 2.2-.8 3.3-.8 2.4 0 4.6 1.2 5.9 3.4l13.5 24.5c1.7 3.3.3 7.4-2.9 9.2zm-87.7 48.8l1.2-.7-20.1-36.2-1.2.7c-6.1 3.4-8.2 11-4.9 17.1l1.3 2.3-10.5 5.8-1-1.8c-1.4-2.5-4.5-3.4-6.9-2-2.5 1.4-3.4 4.5-2 6.9l6.9 12.5c.9 1.7 2.7 2.6 4.5 2.6.8 0 1.7-.2 2.5-.6 2.5-1.4 3.4-4.5 2-6.9l-1-1.8 10.5-5.8 1.7 3c3.3 6 10.9 8.2 17 4.9z"/></symbol><symbol id="twitter-footer" viewBox="0 0 612 497.1"><path id="bird-footer" class="st0" d="M612 58.8c-22.5 10-46.7 16.7-72.1 19.8 25.9-15.5 45.8-40.2 55.2-69.4-24.3 14.4-51.2 24.8-79.8 30.5C492.4 15.2 459.8 0 423.7 0c-69.3 0-125.6 56.2-125.6 125.5 0 9.8 1.1 19.4 3.3 28.6-104.3-5.2-196.8-55.2-258.8-131.2C31.8 41.5 25.7 63 25.7 86c0 43.6 22.2 82 55.8 104.5-20.6-.7-39.9-6.3-56.9-15.8v1.6c0 60.8 43.3 111.6 100.7 123.1-10.5 2.8-21.6 4.4-33.1 4.4-8.1 0-15.9-.8-23.6-2.3 16 49.9 62.3 86.2 117.3 87.2C143 422.4 88.8 442.4 30 442.4c-10.1 0-20.1-.6-29.9-1.7 55.6 35.7 121.5 56.5 192.4 56.5 230.9 0 357.2-191.3 357.2-357.2l-.4-16.3c24.6-17.6 45.9-39.7 62.7-64.9z"/></symbol><symbol id="twitter" viewBox="0 0 612 497.1"><path id="bird" class="st0" d="M612 58.8c-22.5 10-46.7 16.7-72.1 19.8 25.9-15.5 45.8-40.2 55.2-69.4-24.3 14.4-51.2 24.8-79.8 30.5C492.4 15.2 459.8 0 423.7 0c-69.3 0-125.6 56.2-125.6 125.5 0 9.8 1.1 19.4 3.3 28.6-104.3-5.2-196.8-55.2-258.8-131.2C31.8 41.5 25.7 63 25.7 86c0 43.6 22.2 82 55.8 104.5-20.6-.7-39.9-6.3-56.9-15.8v1.6c0 60.8 43.3 111.6 100.7 123.1-10.5 2.8-21.6 4.4-33.1 4.4-8.1 0-15.9-.8-23.6-2.3 16 49.9 62.3 86.2 117.3 87.2C143 422.4 88.8 442.4 30 442.4c-10.1 0-20.1-.6-29.9-1.7 55.6 35.7 121.5 56.5 192.4 56.5 230.9 0 357.2-191.3 357.2-357.2l-.4-16.3c24.6-17.6 45.9-39.7 62.7-64.9z"/></symbol><symbol id="underline" viewBox="0 0 259.3 8.6"><path id="underline-right" class="st0" fill="#fff" d="M111.2 8.6H1.6C.7 8.6 0 7.9 0 7V1.6C0 .7.7 0 1.6 0h109.6c.9 0 1.6.7 1.6 1.6V7c.1.9-.7 1.6-1.6 1.6z"/><path id="underline-dot" class="st0" fill="#fff" d="M125.3 0h8.9v8.6h-8.9z"/><path id="underline-left" class="st0" fill="#fff" d="M257.7 8.6H148.1c-.9 0-1.6-.7-1.6-1.6V1.6c0-.9.7-1.6 1.6-1.6h109.6c.9 0 1.6.7 1.6 1.6V7c0 .9-.7 1.6-1.6 1.6z"/></symbol></svg>