<?xml version="1.0" encoding="utf-8"?>
<!-- Generator: Adobe Illustrator 19.2.1, SVG Export Plug-In . SVG Version: 6.00 Build 0)  -->
<svg version="1.1" id="hero" xmlns="http://www.w3.org/2000/svg" xmlns:xlink="http://www.w3.org/1999/xlink" x="0px" y="0px"
	 viewBox="0 0 564 331.1" style="enable-background:new 0 0 564 331.1;" xml:space="preserve">
<style type="text/css">
	.st0{fill:url(#rocket-body_1_);}
</style>
<g id="mountain-top">
	<polygon id="mountain-top-middle" points="237.1,188.5 293.2,141.9 263.5,199.6 	"/>
	<path id="mountain-top-left" d="M158.7,184l34-14.4l-10.2,12c0,0-1.9,10.2-2.4,10.1c-0.5,0-10.4-0.2-15,1
		C165,192.8,161.6,186.2,158.7,184z"/>
	<path id="mountain-top-right" d="M342.4,168.2l39-28.1c0,0-1.6,11.4-2.4,13.5c0,0-7.4,14.2-7.8,14.6c0,0-8.8,10.8-9.4,10.9
		L342.4,168.2z"/>
</g>
<g id="blast">
	<path id="blast-left" d="M229.5,297.1c0,0,41.2-72.2,52.5-162.4c0,0-3.6,92-48.9,163.1L229.5,297.1z"/>
	<path id="blast-right" d="M321.5,291.9c0,0-33.9-108.4-39.5-152.4c0,0,8.8,111.4,37.9,158.3C319.9,297.9,320.2,294.1,321.5,291.9z"
		/>
	<path id="blast-inner" d="M249.7,257.6c0,0,21.3-45.6,28.4-96.9l3.5-23.5c0,0,12.6,101.6,22.9,113.4l-12.9,18c0,0-8-54.8-8.8-82.8
		c0,0-2.4,64.1-0.9,85.9l-17.4-1.4c0,0,2.4-31.2,5.6-43.6c0,0-10.5,36.2-11,40.2L249.7,257.6z"/>
</g>
<g id="mountains">
	<path id="mountains-left" d="M192.6,169.6l70.9,30l11.5-22.4c0,0-7.8,47.4-25.4,77.2l-78.4-9.6l-6.3-15.7l15.2-37.5l2.4-10.1
		L192.6,169.6z"/>
	<polygon id="mountains-right" points="293.5,141.3 361.9,179.1 371.2,168.2 379,153.6 381.4,140.1 423.8,158.8 461,160.6 
		474.3,167.9 484.2,174.6 396.8,256.6 329.2,244.2 315,254.5 306.7,245.9 285.1,157.7 	"/>
</g>
<g id="smoke">
	<path id="smoke-outer" d="M0,30.2c0,0,22.5-3.4,32.5,27.1c0,0,8.7,30.8,2.7,36.7c0,0,18.8,2,21.3,43.8c0,0,18.5,15.3,22,25.8
		c0,0,21.5-21.5,62.5,49.5c0,0,23.4,29.4,35.7,43.5c0,0,115.8,32,144.8,11.5c0,0,30.8-28.5,59.9-17c0,0,21.8,11.5,33.7-4
		l132.7-119.9c0,0,4.7-15.6,16.2-18.1v222H0V30.2z"/>
	<path id="smoke-inner" d="M32.5,57.2c0,0,34.5,13,33,47c0,0-13,3-14,5.5c0,0,27.5-9,34,19.5c0,0,27.5-2,42,33.5
		c0,0-14,4.5-14.5,6.5s27.5-15,52,23.5c0,0,42.5-12,56.5,39.5c0,0-28.5-3-49.5,9.5c0,0,50-22,79.5,15s52.5-11.5,52.5-11.5
		s8.5,1.5,12,4.5c0,0,18-22.5,41-21s35.5,15,39.5,24.5c0,0,1.5-4.5,0-11c0,0,17-16.5,24-15c0,0-1.7-55.4,55.4-57.7
		c0,0,1.2,0.2-3-2.5c0,0,4.6-5.5,13.1-3.2c0,0,13-38.2,47-33.2c0,0,3.4-12.1,17.2-9.1c0,0-8.7,15.1-0.2,34.1l14,2
		c0,0-40.5-3.5-42.5,40.5c0,0-23,9-29.5,19c0,0,14,3.5,19,9.5c0,0-39.5-22.5-55.5,18c0,0-41.8-6.8-55,21c0,0-33.3-28.3-68.5,4.9
		c0,0-10.5,8.6-12.5,33.6c0,0-12.9-5.6-23.5-4c0,0-24.2,0.6-35.5,14c0,0-16.5-21.5-49-17.5c0,0-22-51.5-79.5-28c0,0,20.5-15,27-15.5
		c0,0-11.8-21.1-32-17.5c0,0,3.4-32.2-14-57c0,0-10.1-14.6-34.5-15c0,0-22.5,0.5-37,9c0,0,20-13.5,23-15c0,0-3.2-14-12.5-18
		c0,0-1.8-23.9-10.5-36.2c0,0-5-8.8-19-17.2C22.5,86.2,35,60.2,32.5,57.2z"/>
</g>
<g id="stars">
	<path id="star8" d="M463.6,15c0,0,2,3.8,4.6,4.2c0,0-3.4,1.6-4.6,4.7c0,0-1.3-3.4-4.7-4.6C459,19.3,462.8,17.9,463.6,15z"/>
	<path id="star7" d="M483.6,10.5c0,0,1.1,2.4,2.6,2.6c0,0-1.9,1-2.6,2.9c0,0-0.8-2.1-2.6-2.9C481,13.1,483.1,12.3,483.6,10.5z"/>
	<path id="star6" d="M411.4,5c0,0,1.5,2.6,3.4,2.8c0,0-2.5,1.1-3.4,3.2c0,0-1-2.3-3.4-3.1C408,7.9,410.7,6.9,411.4,5z"/>
	<path id="star5" d="M358,26.6c0,0,0.9,1.5,2,1.6c0,0-1.5,0.6-2,1.8c0,0-0.6-1.3-2-1.8C356,28.2,357.6,27.7,358,26.6z"/>
	<path id="star4" d="M211.4,5c0,0,1.5,3.5,3.4,3.8c0,0-2.5,1.4-3.4,4.2c0,0-1-3.1-3.4-4.2C208,8.8,210.7,7.6,211.4,5z"/>
	<path id="star3" d="M154.9,20c0,0,2.2,4.3,5.1,4.7c0,0-3.8,1.8-5.1,5.3c0,0-1.5-3.8-5.1-5.2C149.8,24.8,153.9,23.2,154.9,20z"/>
	<path id="star2" d="M82.9,0c0,0,2.2,4.3,5.1,4.7c0,0-3.8,1.8-5.1,5.3c0,0-1.5-3.8-5.1-5.2C77.8,4.8,81.9,3.2,82.9,0z"/>
	<path id="star1" d="M48.9,18.7c0,0,0.6,1.2,1.4,1.3c0,0-1,0.5-1.4,1.4c0,0-0.4-1-1.4-1.4C47.5,19.9,48.6,19.5,48.9,18.7z"/>
</g>
<g id="clouds">
	<path id="red-cloud-left" d="M178.4,97.2h43.4c0.1-1,0.1-0.8,0.1-1c0-1.8-1.8-3.4-4-3.4c-1.2,0-2.3,0.4-3,1.1
		c-0.6-1-1.8-1.8-3.2-1.9c-0.4-0.5-1.1-1-1.8-1.2c-0.4-1.3-1.7-2.2-3.4-2.2c-1.1,0-2.1,0.5-2.8,1.2c-0.5-0.1-0.9-0.2-1.4-0.2
		c-1.7,0-3.2,0.7-4.1,1.8c-0.1-2-2.1-3.7-4.5-3.7c-1.1,0-2,0.3-2.8,0.8c-0.1-1.9-2-3.4-4.3-3.4c-2.4,0-4.3,1.6-4.3,3.6
		c0,0.3,0.1,0.7,0.2,1c-0.3,0-0.6-0.1-0.9-0.1c-2.8,0-5,2.1-5,4.4C176.7,95.2,177.3,96.2,178.4,97.2z"/>
	<path id="white-cloud-left" d="M192.9,101.2h30.2c0.1-1,0.1-0.6,0.1-0.9c0-1.5-1.2-2.8-2.8-2.8c-0.8,0-1.6,0.3-2.1,0.9
		c-0.4-0.9-1.2-1.5-2.2-1.6c-0.3-0.5-0.8-0.8-1.3-1c-0.2-1.1-1.2-1.9-2.3-1.9c-0.8,0-1.5,0.4-1.9,1c-0.3-0.1-0.6-0.2-1-0.2
		c-1.2,0-2.2,0.6-2.8,1.5c-0.1-1.7-1.4-3.1-3.2-3.1c-0.7,0-1.4,0.3-1.9,0.7c-0.1-1.6-1.4-2.8-3-2.8c-1.7,0-3,1.3-3,3
		c0,0.3,0.1,0.6,0.1,0.8c-0.2,0-0.4-0.1-0.6-0.1c-1.9,0-3.5,1.8-3.5,3.7C191.7,99.5,192.1,100.2,192.9,101.2z"/>
	<path id="red-cloud-right" d="M415.1,98.2c-0.5-2-2-2.9-3.9-2.9c-0.3,0-0.6,0-0.9,0.1c-0.6-0.8-1.5-1.3-2.6-1.3
		c-0.9,0-1.7,0.3-2.3,0.9c-0.1-2-1.9-3.6-4-3.6c-1.1,0-2.1,0.4-2.8,1.1c0.2-0.6,0.3-1.1,0.3-1.7c0-3.5-3-6.3-6.6-6.3
		c-3.1,0-5.7,2-6.4,4.8c-0.2,0-0.4-0.1-0.7-0.1c-2.2,0-4.1,1.5-4.5,3.4c-0.5-0.2-1-0.4-1.6-0.4c-1.9,0-3.5,1.3-3.7,3.1
		c-0.3-0.1-0.5-0.1-0.8-0.1c-1.6,0-2.9,1.3-2.9,2.8v0.1h43.4V98.2z"/>
	<path id="white-cloud-right" d="M433.1,93.2c-0.4-2-1.9-2.8-3.6-2.8c-0.3,0-0.6,0-0.8,0.1c-0.5-0.7-1.4-1.2-2.4-1.2
		c-0.8,0-1.6,0.3-2.1,0.9c-0.1-2-1.7-3.5-3.7-3.5c-1,0-1.9,0.4-2.6,1.1c0.2-0.5,0.2-1.1,0.2-1.7c0-3.4-2.7-6.1-6.1-6.1
		c-2.9,0-5.3,2-5.9,4.7c-0.2,0-0.4-0.1-0.6-0.1c-2,0-3.8,1.4-4.2,3.3c-0.5-0.2-1-0.3-1.5-0.3c-1.8,0-3.2,1.3-3.4,3
		c-0.2-0.1-0.5-0.1-0.7-0.1c-1.5,0-2.7,1.3-2.7,2.7v0.1L433.1,93.2L433.1,93.2z"/>
</g>
<g id="rocket">
	<linearGradient id="rocket-body_1_" gradientUnits="userSpaceOnUse" x1="273.9789" y1="103.6172" x2="287.1709" y2="116.1073">
		<stop  offset="0" style="stop-color:#5A3A4A"/>
		<stop  offset="1" style="stop-color:#000000"/>
	</linearGradient>
	<path id="rocket-body" class="st0" fill= "url(#rocket-body_1_)" d="M287.5,115c0,0,0.5-11.1-0.7-12.8c-1.1-1.6-4.8-4.9-4.8-4.9s-3.8,3.3-4.9,4.9
		c-1.2,1.7-0.7,12.8-0.7,12.8s-1.4,2.9-1.3,3.5c0.1,0.9,2.6,0,3.2-0.6h1.6l0.1,1.9h2h1.9l0.1-1.9h1.6c0.6,0.6,3,1.5,3.2,0.6
		C288.9,117.9,287.5,115,287.5,115z"/>
	<circle id="glass" cx="282" cy="107.3" r="1.9"/>
	<path id="outer-flame" d="M279.5,120.2h4.8c0,0-0.8,0.5-0.3,1.7c0,0-0.6,0.6-0.3,1c0,0-1,0.5-0.5,0.9c0,0-0.4,0-0.4,0.9
		c0,0-0.9-1.4-1.5-0.3c0,0-0.3-1.1-0.8-0.5c0,0,0.3-1.6-0.5-0.9c0,0,0.1-1.5-0.4-1.2C279.7,121.9,280.2,121,279.5,120.2z"/>
	<path id="inner-flame" d="M280.2,120.2c0,0,1.2,0.8,0.4,1.1c0,0,0.7,0.5,0.2,1c0,0,0.4-0.4,0.7-0.3c0.3,0.1,0.5,0.6,0.5,0.6
		s0.5-1,1-0.4c0,0-0.2-1.1,0.3-0.7c0,0-0.3-0.4-0.3-0.6c0-0.2,0.7-0.6,0.7-0.6L280.2,120.2L280.2,120.2z"/>
</g>
</svg>
