<?xml version="1.0" encoding="utf-8"?>
<!-- Generator: Adobe Illustrator 19.2.1, SVG Export Plug-In . SVG Version: 6.00 Build 0)  -->
<svg version="1.1" id="signal" xmlns="http://www.w3.org/2000/svg" xmlns:xlink="http://www.w3.org/1999/xlink" x="0px" y="0px"
	 width="346.3px" height="346.2px" viewBox="0 0 346.3 346.2" style="enable-background:new 0 0 346.3 346.2;" xml:space="preserve"
	>
<style type="text/css">
	.st0{fill:#FFFFFF;}
</style>
<circle id="signal-circle" class="st0" cx="48.4" cy="297.8" r="48.4"/>
<g id="signal-waves">
	<path id="wave-3" class="st0" d="M182.9,289c-2.1-31.9-15.6-62.2-38.1-85.2c-22.4-23-52.3-37.2-84.1-40.1c-0.9-0.1-1.7-0.1-2.5-0.1
		c-7.2,0-11.3,3.1-11.3,8.4v16.5c0,8.7,6.8,9.1,10,9.3c0.4,0,0.8,0,1.2,0.1c48.4,4.6,86.4,43.2,90.5,91.6l0,0.5
		c0.2,2.8,0.7,9.5,8.7,9.5h17.3c3,0,5.2-0.8,6.6-2.3c2-2.2,1.8-5.3,1.6-7.4C182.9,289.4,182.9,289.2,182.9,289z"/>
	<path id="wave-2" class="st0" d="M203.3,146.1c-37.7-38.5-87.8-61.5-141.2-64.8c-0.4,0-0.7,0-1.1-0.1c-1.2-0.1-2.6-0.2-4.1-0.2
		c-6.6,0-10,2.5-10,7.3v18.3c0,7.9,9.3,8.6,14.3,8.9l1,0.1c91.7,6.8,164.3,81.3,168.8,173.2c0.1,2.9,0.5,10.5,8,10.5h19.3
		c2,0,3.6-0.6,4.8-1.9c2.2-2.3,2.3-5.9,2.2-8.4C263,235.4,241,184.6,203.3,146.1z"/>
	<path id="wave-1" class="st0" d="M346.3,286.4c-2.8-73.9-32.9-143.8-84.9-196.9C209.6,36.5,140.5,4.8,66.9,0.3l-0.8,0
		C64.6,0.1,62.6,0,60.6,0c-9.1,0-13.7,2.8-13.7,8.4v17.2c0,8.7,9.9,8.8,16.5,8.8c1.3,0,2.6,0,3.6,0.1
		C201.3,44,306.6,152.5,312.1,287c0,0.3,0,0.6,0,1c0.1,3.7,0.2,11.3,9.4,11.3h16c2.5,0,4.5-0.8,6-2.3
		C346.2,294.1,346.4,289.6,346.3,286.4z"/>
</g>
</svg>
